<svg id="visual" viewBox="0 0 1920 1080" width="1920" height="1080" xmlns="http://www.w3.org/2000/svg" xmlns:xlink="http://www.w3.org/1999/xlink" version="1.1"><path d="M0 109L29.2 125.2C58.3 141.3 116.7 173.7 174.8 184.5C233 195.3 291 184.7 349.2 177.5C407.3 170.3 465.7 166.7 523.8 168.5C582 170.3 640 177.7 698.2 172.3C756.3 167 814.7 149 872.8 159.7C931 170.3 989 209.7 1047.2 211.3C1105.3 213 1163.7 177 1221.8 178.8C1280 180.7 1338 220.3 1396.2 236.7C1454.3 253 1512.7 246 1570.8 237C1629 228 1687 217 1745.2 204.3C1803.3 191.7 1861.7 177.3 1890.8 170.2L1920 163L1920 0L1890.8 0C1861.7 0 1803.3 0 1745.2 0C1687 0 1629 0 1570.8 0C1512.7 0 1454.3 0 1396.2 0C1338 0 1280 0 1221.8 0C1163.7 0 1105.3 0 1047.2 0C989 0 931 0 872.8 0C814.7 0 756.3 0 698.2 0C640 0 582 0 523.8 0C465.7 0 407.3 0 349.2 0C291 0 233 0 174.8 0C116.7 0 58.3 0 29.2 0L0 0Z" fill="#001122"></path><path d="M0 347L29.2 381.2C58.3 415.3 116.7 483.7 174.8 516C233 548.3 291 544.7 349.2 526.7C407.3 508.7 465.7 476.3 523.8 449.3C582 422.3 640 400.7 698.2 393.5C756.3 386.3 814.7 393.7 872.8 417C931 440.3 989 479.7 1047.2 488.7C1105.3 497.7 1163.7 476.3 1221.8 489C1280 501.7 1338 548.3 1396.2 544.7C1454.3 541 1512.7 487 1570.8 451C1629 415 1687 397 1745.2 411.3C1803.3 425.7 1861.7 472.3 1890.8 495.7L1920 519L1920 161L1890.8 168.2C1861.7 175.3 1803.3 189.7 1745.2 202.3C1687 215 1629 226 1570.8 235C1512.7 244 1454.3 251 1396.2 234.7C1338 218.3 1280 178.7 1221.8 176.8C1163.7 175 1105.3 211 1047.2 209.3C989 207.7 931 168.3 872.8 157.7C814.7 147 756.3 165 698.2 170.3C640 175.7 582 168.3 523.8 166.5C465.7 164.7 407.3 168.3 349.2 175.5C291 182.7 233 193.3 174.8 182.5C116.7 171.7 58.3 139.3 29.2 123.2L0 107Z" fill="#661b48"></path><path d="M0 563L29.2 588.2C58.3 613.3 116.7 663.7 174.8 690.7C233 717.7 291 721.3 349.2 701.5C407.3 681.7 465.7 638.3 523.8 605.8C582 573.3 640 551.7 698.2 553.5C756.3 555.3 814.7 580.7 872.8 613.2C931 645.7 989 685.3 1047.2 694.3C1105.3 703.3 1163.7 681.7 1221.8 687C1280 692.3 1338 724.7 1396.2 722.8C1454.3 721 1512.7 685 1570.8 656.2C1629 627.3 1687 605.7 1745.2 618.3C1803.3 631 1861.7 678 1890.8 701.5L1920 725L1920 517L1890.8 493.7C1861.7 470.3 1803.3 423.7 1745.2 409.3C1687 395 1629 413 1570.8 449C1512.7 485 1454.3 539 1396.2 542.7C1338 546.3 1280 499.7 1221.8 487C1163.7 474.3 1105.3 495.7 1047.2 486.7C989 477.7 931 438.3 872.8 415C814.7 391.7 756.3 384.3 698.2 391.5C640 398.7 582 420.3 523.8 447.3C465.7 474.3 407.3 506.7 349.2 524.7C291 542.7 233 546.3 174.8 514C116.7 481.7 58.3 413.3 29.2 379.2L0 345Z" fill="#9b2929"></path><path d="M0 725L29.2 752C58.3 779 116.7 833 174.8 851C233 869 291 851 349.2 816.7C407.3 782.3 465.7 731.7 523.8 711.8C582 692 640 703 698.2 708.5C756.3 714 814.7 714 872.8 726.5C931 739 989 764 1047.2 785.5C1105.3 807 1163.7 825 1221.8 835.8C1280 846.7 1338 850.3 1396.2 839.7C1454.3 829 1512.7 804 1570.8 782.5C1629 761 1687 743 1745.2 762.7C1803.3 782.3 1861.7 839.7 1890.8 868.3L1920 897L1920 723L1890.8 699.5C1861.7 676 1803.3 629 1745.2 616.3C1687 603.7 1629 625.3 1570.8 654.2C1512.7 683 1454.3 719 1396.2 720.8C1338 722.7 1280 690.3 1221.8 685C1163.7 679.7 1105.3 701.3 1047.2 692.3C989 683.3 931 643.7 872.8 611.2C814.7 578.7 756.3 553.3 698.2 551.5C640 549.7 582 571.3 523.8 603.8C465.7 636.3 407.3 679.7 349.2 699.5C291 719.3 233 715.7 174.8 688.7C116.7 661.7 58.3 611.3 29.2 586.2L0 561Z" fill="#661b48"></path><path d="M0 1081L29.2 1081C58.3 1081 116.7 1081 174.8 1081C233 1081 291 1081 349.2 1081C407.3 1081 465.7 1081 523.8 1081C582 1081 640 1081 698.2 1081C756.3 1081 814.7 1081 872.8 1081C931 1081 989 1081 1047.2 1081C1105.3 1081 1163.7 1081 1221.8 1081C1280 1081 1338 1081 1396.2 1081C1454.3 1081 1512.7 1081 1570.8 1081C1629 1081 1687 1081 1745.2 1081C1803.3 1081 1861.7 1081 1890.8 1081L1920 1081L1920 895L1890.8 866.3C1861.7 837.7 1803.3 780.3 1745.2 760.7C1687 741 1629 759 1570.8 780.5C1512.7 802 1454.3 827 1396.2 837.7C1338 848.3 1280 844.7 1221.8 833.8C1163.7 823 1105.3 805 1047.2 783.5C989 762 931 737 872.8 724.5C814.7 712 756.3 712 698.2 706.5C640 701 582 690 523.8 709.8C465.7 729.7 407.3 780.3 349.2 814.7C291 849 233 867 174.8 849C116.7 831 58.3 777 29.2 750L0 723Z" fill="#001122"></path></svg>